<svg width="24" height="25" viewBox="0 0 24 25" fill="none" xmlns="http://www.w3.org/2000/svg">
<g clip-path="url(#clip0_16_15871)">
<path d="M4 8.33789C4 7.27702 4.42143 6.25961 5.17157 5.50946C5.92172 4.75932 6.93913 4.33789 8 4.33789H16C17.0609 4.33789 18.0783 4.75932 18.8284 5.50946C19.5786 6.25961 20 7.27702 20 8.33789V16.3379C20 17.3988 19.5786 18.4162 18.8284 19.1663C18.0783 19.9165 17.0609 20.3379 16 20.3379H8C6.93913 20.3379 5.92172 19.9165 5.17157 19.1663C4.42143 18.4162 4 17.3988 4 16.3379V8.33789Z" stroke="#9E9E9E" stroke-width="2" stroke-linecap="round" stroke-linejoin="round"/>
<path d="M9 12.3379C9 13.1335 9.31607 13.8966 9.87868 14.4592C10.4413 15.0218 11.2044 15.3379 12 15.3379C12.7956 15.3379 13.5587 15.0218 14.1213 14.4592C14.6839 13.8966 15 13.1335 15 12.3379C15 11.5422 14.6839 10.7792 14.1213 10.2166C13.5587 9.65396 12.7956 9.33789 12 9.33789C11.2044 9.33789 10.4413 9.65396 9.87868 10.2166C9.31607 10.7792 9 11.5422 9 12.3379Z" stroke="#9E9E9E" stroke-width="2" stroke-linecap="round" stroke-linejoin="round"/>
<path d="M16.5 7.83789V7.84789" stroke="#9E9E9E" stroke-width="2" stroke-linecap="round" stroke-linejoin="round"/>
</g>
<defs>
<clipPath id="clip0_16_15871">
<rect width="24" height="24" fill="white" transform="translate(0 0.337891)"/>
</clipPath>
</defs>
</svg>
