<svg width="24" height="25" viewBox="0 0 24 25" fill="none" xmlns="http://www.w3.org/2000/svg">
<path d="M21.9684 6.85539C21.8801 6.50978 21.7109 6.19013 21.4747 5.9228C21.2385 5.65547 20.9421 5.44814 20.61 5.31789C17.3962 4.07664 12.2812 4.08789 12 4.08789C11.7188 4.08789 6.60375 4.07664 3.39 5.31789C3.0579 5.44814 2.76153 5.65547 2.52534 5.9228C2.28915 6.19013 2.1199 6.50978 2.03156 6.85539C1.78875 7.79102 1.5 9.50102 1.5 12.3379C1.5 15.1748 1.78875 16.8848 2.03156 17.8204C2.11977 18.1662 2.28895 18.486 2.52515 18.7535C2.76136 19.021 3.0578 19.2285 3.39 19.3588C6.46875 20.5466 11.2875 20.5879 11.9381 20.5879H12.0619C12.7125 20.5879 17.5341 20.5466 20.61 19.3588C20.9422 19.2285 21.2386 19.021 21.4748 18.7535C21.711 18.486 21.8802 18.1662 21.9684 17.8204C22.2113 16.8829 22.5 15.1748 22.5 12.3379C22.5 9.50102 22.2113 7.79102 21.9684 6.85539ZM15.2081 12.6501L10.7081 15.6501C10.6516 15.6878 10.586 15.7094 10.5181 15.7127C10.4503 15.716 10.3829 15.7008 10.323 15.6687C10.2631 15.6367 10.2131 15.589 10.1782 15.5307C10.1434 15.4724 10.125 15.4058 10.125 15.3379V9.33789C10.125 9.26999 10.1434 9.20334 10.1782 9.14507C10.2131 9.08681 10.2631 9.0391 10.323 9.00705C10.3829 8.975 10.4503 8.9598 10.5181 8.96309C10.586 8.96638 10.6516 8.98802 10.7081 9.02571L15.2081 12.0257C15.2596 12.0599 15.3017 12.1063 15.3309 12.1608C15.3601 12.2153 15.3754 12.2761 15.3754 12.3379C15.3754 12.3997 15.3601 12.4605 15.3309 12.515C15.3017 12.5694 15.2596 12.6159 15.2081 12.6501Z" fill="#71717A"/>
</svg>
