<svg width="72" height="72" viewBox="0 0 72 72" fill="none" xmlns="http://www.w3.org/2000/svg">
<g clip-path="url(#clip0_16_15746)">
<path d="M69 36L61.68 27.63L62.7 16.56L51.87 14.1L46.2 4.5L36 8.88L25.8 4.5L20.13 14.07L9.3 16.5L10.32 27.6L3 36L10.32 44.37L9.3 55.47L20.13 57.93L25.8 67.5L36 63.09L46.2 67.47L51.87 57.9L62.7 55.44L61.68 44.37L69 36ZM30.27 50.16L18.87 38.73L23.31 34.29L30.27 41.28L47.82 23.67L52.26 28.11L30.27 50.16Z" fill="#B59059"/>
</g>
<defs>
<clipPath id="clip0_16_15746">
<rect width="72" height="72" fill="white"/>
</clipPath>
</defs>
</svg>
