<svg width="72" height="72" viewBox="0 0 72 72" fill="none" xmlns="http://www.w3.org/2000/svg">
<g clip-path="url(#clip0_16_15762)">
<path d="M18 39C16.35 39 15 40.35 15 42C15 43.65 16.35 45 18 45C19.65 45 21 43.65 21 42C21 40.35 19.65 39 18 39ZM18 51C16.35 51 15 52.35 15 54C15 55.65 16.35 57 18 57C19.65 57 21 55.65 21 54C21 52.35 19.65 51 18 51ZM18 27C16.35 27 15 28.35 15 30C15 31.65 16.35 33 18 33C19.65 33 21 31.65 21 30C21 28.35 19.65 27 18 27ZM9 28.5C8.16 28.5 7.5 29.16 7.5 30C7.5 30.84 8.16 31.5 9 31.5C9.84 31.5 10.5 30.84 10.5 30C10.5 29.16 9.84 28.5 9 28.5ZM18 15C16.35 15 15 16.35 15 18C15 19.65 16.35 21 18 21C19.65 21 21 19.65 21 18C21 16.35 19.65 15 18 15ZM63 31.5C63.84 31.5 64.5 30.84 64.5 30C64.5 29.16 63.84 28.5 63 28.5C62.16 28.5 61.5 29.16 61.5 30C61.5 30.84 62.16 31.5 63 31.5ZM42 21C43.65 21 45 19.65 45 18C45 16.35 43.65 15 42 15C40.35 15 39 16.35 39 18C39 19.65 40.35 21 42 21ZM42 10.5C42.84 10.5 43.5 9.84 43.5 9C43.5 8.16 42.84 7.5 42 7.5C41.16 7.5 40.5 8.16 40.5 9C40.5 9.84 41.16 10.5 42 10.5ZM9 40.5C8.16 40.5 7.5 41.16 7.5 42C7.5 42.84 8.16 43.5 9 43.5C9.84 43.5 10.5 42.84 10.5 42C10.5 41.16 9.84 40.5 9 40.5ZM30 61.5C29.16 61.5 28.5 62.16 28.5 63C28.5 63.84 29.16 64.5 30 64.5C30.84 64.5 31.5 63.84 31.5 63C31.5 62.16 30.84 61.5 30 61.5ZM30 10.5C30.84 10.5 31.5 9.84 31.5 9C31.5 8.16 30.84 7.5 30 7.5C29.16 7.5 28.5 8.16 28.5 9C28.5 9.84 29.16 10.5 30 10.5ZM30 21C31.65 21 33 19.65 33 18C33 16.35 31.65 15 30 15C28.35 15 27 16.35 27 18C27 19.65 28.35 21 30 21ZM30 37.5C27.51 37.5 25.5 39.51 25.5 42C25.5 44.49 27.51 46.5 30 46.5C32.49 46.5 34.5 44.49 34.5 42C34.5 39.51 32.49 37.5 30 37.5ZM54 39C52.35 39 51 40.35 51 42C51 43.65 52.35 45 54 45C55.65 45 57 43.65 57 42C57 40.35 55.65 39 54 39ZM54 51C52.35 51 51 52.35 51 54C51 55.65 52.35 57 54 57C55.65 57 57 55.65 57 54C57 52.35 55.65 51 54 51ZM54 27C52.35 27 51 28.35 51 30C51 31.65 52.35 33 54 33C55.65 33 57 31.65 57 30C57 28.35 55.65 27 54 27ZM54 15C52.35 15 51 16.35 51 18C51 19.65 52.35 21 54 21C55.65 21 57 19.65 57 18C57 16.35 55.65 15 54 15ZM63 40.5C62.16 40.5 61.5 41.16 61.5 42C61.5 42.84 62.16 43.5 63 43.5C63.84 43.5 64.5 42.84 64.5 42C64.5 41.16 63.84 40.5 63 40.5ZM42 51C40.35 51 39 52.35 39 54C39 55.65 40.35 57 42 57C43.65 57 45 55.65 45 54C45 52.35 43.65 51 42 51ZM42 61.5C41.16 61.5 40.5 62.16 40.5 63C40.5 63.84 41.16 64.5 42 64.5C42.84 64.5 43.5 63.84 43.5 63C43.5 62.16 42.84 61.5 42 61.5ZM30 25.5C27.51 25.5 25.5 27.51 25.5 30C25.5 32.49 27.51 34.5 30 34.5C32.49 34.5 34.5 32.49 34.5 30C34.5 27.51 32.49 25.5 30 25.5ZM30 51C28.35 51 27 52.35 27 54C27 55.65 28.35 57 30 57C31.65 57 33 55.65 33 54C33 52.35 31.65 51 30 51ZM42 37.5C39.51 37.5 37.5 39.51 37.5 42C37.5 44.49 39.51 46.5 42 46.5C44.49 46.5 46.5 44.49 46.5 42C46.5 39.51 44.49 37.5 42 37.5ZM42 25.5C39.51 25.5 37.5 27.51 37.5 30C37.5 32.49 39.51 34.5 42 34.5C44.49 34.5 46.5 32.49 46.5 30C46.5 27.51 44.49 25.5 42 25.5Z" fill="#B59059"/>
</g>
<defs>
<clipPath id="clip0_16_15762">
<rect width="72" height="72" fill="white"/>
</clipPath>
</defs>
</svg>
