<svg width="216" height="216" viewBox="0 0 216 216" fill="none" xmlns="http://www.w3.org/2000/svg">
<rect width="216" height="216" fill="white"/>
<rect width="16" height="16" rx="3" fill="#B59059" fill-opacity="0.2"/>
<rect x="40" width="16" height="16" rx="3" fill="#B59059" fill-opacity="0.2"/>
<rect x="80" width="16" height="16" rx="3" fill="#B59059" fill-opacity="0.2"/>
<rect x="120" width="16" height="16" rx="3" fill="#B59059" fill-opacity="0.2"/>
<rect x="160" width="16" height="16" rx="3" fill="#B59059" fill-opacity="0.2"/>
<rect x="200" width="16" height="16" rx="3" fill="#B59059" fill-opacity="0.2"/>
<rect y="40" width="16" height="16" rx="3" fill="#B59059" fill-opacity="0.2"/>
<rect x="40" y="40" width="16" height="16" rx="3" fill="#B59059" fill-opacity="0.2"/>
<rect x="80" y="40" width="16" height="16" rx="3" fill="#B59059" fill-opacity="0.2"/>
<rect x="120" y="40" width="16" height="16" rx="3" fill="#B59059" fill-opacity="0.2"/>
<rect x="160" y="40" width="16" height="16" rx="3" fill="#B59059" fill-opacity="0.2"/>
<rect x="200" y="40" width="16" height="16" rx="3" fill="#B59059" fill-opacity="0.2"/>
<rect y="80" width="16" height="16" rx="3" fill="#B59059" fill-opacity="0.2"/>
<rect x="40" y="80" width="16" height="16" rx="3" fill="#B59059" fill-opacity="0.2"/>
<rect x="80" y="80" width="16" height="16" rx="3" fill="#B59059" fill-opacity="0.2"/>
<rect x="120" y="80" width="16" height="16" rx="3" fill="#B59059" fill-opacity="0.2"/>
<rect x="160" y="80" width="16" height="16" rx="3" fill="#B59059" fill-opacity="0.2"/>
<rect x="200" y="80" width="16" height="16" rx="3" fill="#B59059" fill-opacity="0.2"/>
<rect y="120" width="16" height="16" rx="3" fill="#B59059" fill-opacity="0.2"/>
<rect x="40" y="120" width="16" height="16" rx="3" fill="#B59059" fill-opacity="0.2"/>
<rect x="80" y="120" width="16" height="16" rx="3" fill="#B59059" fill-opacity="0.2"/>
<rect x="120" y="120" width="16" height="16" rx="3" fill="#B59059" fill-opacity="0.2"/>
<rect x="160" y="120" width="16" height="16" rx="3" fill="#B59059" fill-opacity="0.2"/>
<rect x="200" y="120" width="16" height="16" rx="3" fill="#B59059" fill-opacity="0.2"/>
<rect y="160" width="16" height="16" rx="3" fill="#B59059" fill-opacity="0.2"/>
<rect x="40" y="160" width="16" height="16" rx="3" fill="#B59059" fill-opacity="0.2"/>
<rect x="80" y="160" width="16" height="16" rx="3" fill="#B59059" fill-opacity="0.2"/>
<rect x="120" y="160" width="16" height="16" rx="3" fill="#B59059" fill-opacity="0.2"/>
<rect x="160" y="160" width="16" height="16" rx="3" fill="#B59059" fill-opacity="0.2"/>
<rect x="200" y="160" width="16" height="16" rx="3" fill="#B59059" fill-opacity="0.2"/>
<rect y="200" width="16" height="16" rx="3" fill="#B59059" fill-opacity="0.2"/>
<rect x="40" y="200" width="16" height="16" rx="3" fill="#B59059" fill-opacity="0.2"/>
<rect x="80" y="200" width="16" height="16" rx="3" fill="#B59059" fill-opacity="0.2"/>
<rect x="120" y="200" width="16" height="16" rx="3" fill="#B59059" fill-opacity="0.2"/>
<rect x="160" y="200" width="16" height="16" rx="3" fill="#B59059" fill-opacity="0.2"/>
<rect x="200" y="200" width="16" height="16" rx="3" fill="#B59059" fill-opacity="0.2"/>
<rect width="216" height="216" fill="url(#paint0_radial_16_15674)"/>
<defs>
<radialGradient id="paint0_radial_16_15674" cx="0" cy="0" r="1" gradientUnits="userSpaceOnUse" gradientTransform="translate(108 108) rotate(90) scale(144.5)">
<stop stop-color="white" stop-opacity="0"/>
<stop offset="1" stop-color="white"/>
</radialGradient>
</defs>
</svg>
