<svg width="57" height="21" viewBox="0 0 57 21" fill="none" xmlns="http://www.w3.org/2000/svg">
<path fill-rule="evenodd" clip-rule="evenodd" d="M0.427948 17.4368C4.04405 17.4366 8.42079 17.3645 11.8797 18.6588C12.5187 18.898 17.1495 20.8767 17.1495 20.8767H0.712508H0.427948V17.4368Z" fill="#FEFEFE"/>
<path fill-rule="evenodd" clip-rule="evenodd" d="M0.427948 8.2793C5.62877 8.23842 10.9885 8.7145 15.7145 11.2999C18.8542 13.0175 22.9133 16.397 27.8535 16.303C32.5966 16.1133 34.7477 13.7687 38.6899 11.72C44.5633 8.66752 48.6976 7.47612 55.191 7.92586C55.6591 7.94668 56.1396 8.01556 56.1396 8.01556V12.3298C51.413 12.113 45.0593 12.6976 40.6568 14.8469C36.8941 16.684 32.6866 20.1529 27.8535 20.4212C21.0179 20.4012 18.1716 15.2608 11.0451 13.4253C4.53968 12.5999 4.13283 12.5814 0.427948 12.5814V8.2793Z" fill="#FEFEFE" stroke="#FEFEFE" stroke-width="0.147463" stroke-miterlimit="22.9256"/>
<path fill-rule="evenodd" clip-rule="evenodd" d="M56.1394 17.4368C52.5234 17.4366 48.1466 17.3645 44.6877 18.6588C44.0486 18.898 39.4179 20.8767 39.4179 20.8767H55.8548H56.1394V17.4368Z" fill="#FEFEFE"/>
<path fill-rule="evenodd" clip-rule="evenodd" d="M0.427849 1.20948C5.62867 1.1686 11.5252 1.49822 16.2511 4.08367C19.3909 5.80131 24.2793 9.37603 27.8534 9.23317C32.5965 9.04349 34.7476 6.69888 38.6898 4.6502C44.5632 1.5977 48.6975 0.406294 55.1909 0.856039C55.659 0.876854 56.1395 0.945737 56.1395 0.945737V5.25994C51.4129 5.04318 45.0592 5.62777 40.6567 7.7771C36.894 9.6142 32.6865 13.0831 27.8534 13.3514C21.0178 13.3314 18.0496 8.50814 10.923 6.67271C5.19832 5.57894 4.13273 5.51157 0.427849 5.51157V1.20948Z" fill="#B59059" stroke="#B59059" stroke-width="0.442389" stroke-miterlimit="22.9256"/>
</svg>
